<svg width="36" height="38" viewBox="0 0 36 38" fill="none" xmlns="http://www.w3.org/2000/svg">
<path d="M35.5248 17.7177L31.6648 8.77773C31.5948 8.61773 31.4948 8.49773 31.3548 8.39773C31.2148 8.30773 31.0548 8.25773 30.8848 8.25773H26.5948V5.26773C26.5948 5.03773 26.5048 4.82773 26.3448 4.67773C26.1848 4.51773 25.9648 4.42773 25.7348 4.42773H1.25478C1.02478 4.42773 0.814783 4.51773 0.644783 4.67773C0.494783 4.82773 0.404785 5.04773 0.404785 5.26773V26.9877C0.404785 27.2177 0.494785 27.4277 0.654785 27.5777C0.814785 27.7377 1.03479 27.8277 1.26479 27.8277H4.35478L4.44478 28.1477C4.71478 29.1277 5.31478 30.0177 6.13478 30.6377C7.77478 31.8777 10.2248 31.8777 11.8648 30.6377C12.6848 30.0177 13.2848 29.1377 13.5548 28.1477L13.6448 27.8277H22.3948L22.4848 28.1477C22.7548 29.1277 23.3548 30.0177 24.1748 30.6377C25.8148 31.8777 28.2748 31.8777 29.9048 30.6377C30.7248 30.0177 31.3248 29.1377 31.5948 28.1477L31.6848 27.8277H34.7748C35.0048 27.8277 35.2248 27.7377 35.3748 27.5777C35.5348 27.4177 35.6248 27.2077 35.6248 26.9777V18.0377C35.5848 17.9277 35.5648 17.8177 35.5248 17.7177ZM26.5748 9.94773H30.3048L33.4348 17.1977H26.5748V9.94773ZM11.1048 29.0977C10.5348 29.6577 9.78478 29.9677 8.97478 29.9677C8.37478 29.9677 7.80478 29.7977 7.30478 29.4677C6.80478 29.1377 6.42478 28.6777 6.19478 28.1277C5.96478 27.5777 5.90478 26.9777 6.02478 26.3977C6.14478 25.8177 6.42478 25.2877 6.84478 24.8677C7.26478 24.4477 7.80478 24.1677 8.38478 24.0477C8.96478 23.9277 9.56478 23.9877 10.1248 24.2177C10.6748 24.4477 11.1448 24.8277 11.4748 25.3177C11.8048 25.8077 11.9848 26.3877 11.9848 26.9777C11.9948 27.7877 11.6748 28.5377 11.1048 29.0977ZM23.2648 24.1777C22.8848 24.6677 22.6148 25.2177 22.4548 25.8177L22.3648 26.1377H13.6148L13.5248 25.8177C13.2548 24.8377 12.6548 23.9477 11.8348 23.3277C10.1948 22.0877 7.73478 22.0877 6.10478 23.3277C5.28478 23.9477 4.68478 24.8277 4.41478 25.8177L4.32478 26.1377H2.09478V6.10773H24.8548V22.8377L24.6348 22.9577C24.1148 23.2777 23.6448 23.6877 23.2648 24.1777ZM29.1348 29.0977C28.5748 29.6577 27.8048 29.9677 27.0048 29.9677C26.4048 29.9677 25.8348 29.7977 25.3348 29.4677C24.8348 29.1377 24.4548 28.6777 24.2248 28.1277C23.9948 27.5777 23.9348 26.9877 24.0548 26.3977C24.1748 25.8177 24.4548 25.2877 24.8848 24.8677C25.3048 24.4477 25.8348 24.1677 26.4248 24.0477C27.0048 23.9277 27.6048 23.9877 28.1648 24.2177C28.7148 24.4477 29.1848 24.8277 29.5148 25.3177C29.8448 25.8077 30.0248 26.3877 30.0248 26.9777C30.0148 27.7877 29.7048 28.5377 29.1348 29.0977ZM33.8848 26.1377H31.6448L31.5648 25.8177C31.3048 24.8177 30.7148 23.9277 29.8948 23.2977C29.0748 22.6677 28.0548 22.3177 27.0148 22.3077H26.5848V18.8877H33.8948V26.1377H33.8848Z" fill="#494949"/>
<path d="M15.413 0.824971C10.3029 1.72618 7.37987 5.9912 4.35169 10.1934C1.32351 14.3955 -0.0749253 19.7084 0.377199 24.8642C0.524402 26.5409 0.89241 28.2804 1.94386 29.5903C2.56422 30.3658 3.39487 30.9421 4.23603 31.487C8.46286 34.2221 13.1944 36.1922 18.1257 37.2611C18.6094 37.3659 19.1141 37.4602 19.5872 37.3449C20.2076 37.1982 20.7018 36.7266 21.1539 36.276C22.0792 35.3434 23.015 34.4002 23.9297 33.4571C26.0431 31.3089 28.146 29.1187 29.7968 26.6037C32.3729 22.6845 33.7398 18.1156 35.0436 13.62C35.3905 12.4149 35.7375 11.1679 35.5903 9.92089C35.4116 8.42237 34.5389 7.102 33.519 5.9912C31.8997 4.19927 29.8599 2.7741 27.5783 1.9672C23.8666 0.646825 21.0382 -0.233426 17.1163 0.227658L15.413 0.824971Z" fill="#C9D6A4" style="mix-blend-mode:darken"/>
</svg>
