<svg width="36" height="32" viewBox="0 0 36 32" fill="none" xmlns="http://www.w3.org/2000/svg">
<path d="M31.6939 6.47191C30.1739 4.97191 28.0439 4.21191 25.3739 4.21191C24.6239 4.21191 23.8539 4.34191 23.0839 4.60191C22.3139 4.86191 21.5839 5.21191 20.9239 5.65191C20.2739 6.08191 19.7039 6.49191 19.1939 6.91191L18.0339 7.96191C17.6439 7.58191 17.2439 7.22191 16.8239 6.88191C16.3539 6.50191 15.7839 6.09191 15.1239 5.65191C14.4639 5.21191 13.7339 4.86191 12.9639 4.60191L12.6939 5.40191L12.9639 4.60191C12.1739 4.34191 11.4039 4.21191 10.6539 4.21191C7.98393 4.21191 5.85393 4.97191 4.32393 6.47191C2.79393 7.97191 2.02393 10.0719 2.02393 12.7219C2.02393 13.5319 2.16392 14.3819 2.44392 15.2319C2.72392 16.0819 3.04393 16.8119 3.40393 17.4219C3.76393 18.0219 4.17393 18.6119 4.65393 19.2119L6.09393 20.8119L17.0739 31.4819C17.3939 31.8019 17.8639 31.8219 18.0039 31.8219C18.3639 31.8219 18.7039 31.6919 18.9139 31.4919L29.8939 20.8419C32.6039 18.1119 33.9839 15.3719 33.9839 12.7219C33.9939 10.0719 33.2239 7.97191 31.6939 6.47191ZM28.7139 19.6419L18.0139 30.0219L7.33392 19.6419L5.96393 18.1219C5.56393 17.6219 5.20392 17.0919 4.88392 16.5619C4.58392 16.0619 4.31393 15.4419 4.07393 14.7119C3.84393 14.0219 3.73393 13.3619 3.73393 12.7319C3.73393 10.5219 4.32392 8.88191 5.52392 7.69191C6.73392 6.50191 8.41393 5.92191 10.6539 5.92191C11.2139 5.92191 11.8039 6.02191 12.4039 6.22191C13.0339 6.43191 13.6339 6.72191 14.1639 7.08191C14.7739 7.49191 15.3039 7.87191 15.7339 8.21191C16.1539 8.55191 16.5639 8.92191 16.9539 9.31191L18.0039 10.3719L20.2739 8.21191C20.7139 7.86191 21.2339 7.48191 21.8439 7.08191C22.3839 6.72191 22.9739 6.43191 23.6039 6.22191C24.2039 6.02191 24.7939 5.92191 25.3539 5.92191C27.5939 5.92191 29.2739 6.50191 30.4839 7.69191C31.6939 8.88191 32.2739 10.5219 32.2739 12.7319C32.2939 14.9119 31.0839 17.2419 28.7139 19.6419Z" fill="#494949"/>
<path d="M22.156 0.476926C19.5718 0.694104 16.8887 0.813551 14.6564 2.12747C13.3478 2.89845 12.2371 3.95176 11.1485 5.01593C9.82888 6.30814 8.53128 7.63292 7.39864 9.08801C4.61651 12.6389 2.87906 16.863 1.16359 21.0219C0.70174 22.1404 0.228888 23.324 0.360847 24.5293C0.591774 26.7662 2.7471 28.2756 4.81445 29.1986C8.92716 31.0338 13.4797 31.7396 17.9993 31.8156C19.8137 31.8482 21.6722 31.7722 23.3876 31.1749C24.9271 30.6428 26.2907 29.709 27.5333 28.6665C31.3381 25.4523 34.0873 21.0328 35.2529 16.2223C35.5608 14.9518 35.9237 9.63095 35.4178 9.05543C35.4178 9.05543 32.6247 -0.424359 22.156 0.476926Z" fill="#C9D6A4" style="mix-blend-mode:darken"/>
</svg>
