<svg width="21" height="29" viewBox="0 0 21 29" fill="none" xmlns="http://www.w3.org/2000/svg">
<path d="M12.5905 7.01638C11.9905 6.76628 11.3605 6.64624 10.7305 6.64624C10.4105 6.64624 10.0905 6.67625 9.78051 6.73627C8.83051 6.92634 7.97052 7.38651 7.28052 8.06676C6.60052 8.74701 6.13052 9.61733 5.95052 10.5677C5.76052 11.518 5.86052 12.4884 6.23052 13.3887C6.60052 14.279 7.22052 15.0393 8.03052 15.5795C8.83051 16.1197 9.77051 16.3998 10.7405 16.3998C12.0405 16.3998 13.2605 15.8896 14.1905 14.9693C15.1105 14.0489 15.6205 12.8285 15.6205 11.518C15.6205 10.5477 15.3405 9.61733 14.8005 8.80703C14.2405 8.00674 13.4805 7.38651 12.5905 7.01638ZM13.2905 13.2386C12.9505 13.7488 12.4705 14.139 11.9005 14.3791C11.5205 14.5391 11.1205 14.6091 10.7205 14.6091C10.5205 14.6091 10.3205 14.5891 10.1105 14.5491C9.5105 14.4291 8.96051 14.139 8.53051 13.7088C8.10052 13.2787 7.80051 12.7285 7.69051 12.1282C7.57051 11.528 7.63051 10.9078 7.86051 10.3476C8.10051 9.77738 8.49051 9.29721 9.00051 8.95708C9.5205 8.60696 10.1105 8.42689 10.7205 8.42689C11.5305 8.42689 12.3305 8.75701 12.9005 9.33722C13.4805 9.91743 13.8005 10.6977 13.8105 11.518C13.8105 12.1282 13.6305 12.7285 13.2905 13.2386Z" fill="#1B2006" fill-opacity="0.8"/>
<path d="M17.9305 3.84523C16.0105 1.79448 13.4505 0.674072 10.7305 0.674072C8.01054 0.674072 5.45054 1.80448 3.53054 3.84523C1.60053 5.89598 0.540527 8.62697 0.540527 11.518C0.540527 13.8589 1.27053 16.1697 2.60053 18.0304C2.71053 18.1805 2.82053 18.3305 2.92053 18.4806L10.4805 27.964C10.5405 28.0441 10.6305 28.0841 10.7305 28.0841C10.8305 28.0841 10.9205 28.0441 10.9805 27.964L18.5505 18.4706C18.5905 18.4205 18.8105 18.1104 18.8605 18.0404L18.8705 18.0304C20.2006 16.1697 20.9306 13.8589 20.9206 11.518C20.9106 8.61697 19.8505 5.88597 17.9305 3.84523ZM17.5405 16.94L17.5005 17C17.4305 17.0901 17.3106 17.2701 17.2806 17.3101L11.0505 25.133C10.9705 25.233 10.8605 25.2831 10.7305 25.2831C10.6005 25.2831 10.4905 25.223 10.4105 25.133L4.19053 17.3301C4.16053 17.2901 4.05053 17.1401 3.98053 17.04C3.95053 17 3.92054 16.96 3.92054 16.95L4.00053 16.89L3.91053 16.95C2.80053 15.3994 2.19053 13.4687 2.19053 11.518C2.19053 9.09715 3.08053 6.82632 4.68053 5.11569C6.29053 3.40507 8.44053 2.45472 10.7105 2.45472C12.9605 2.45472 15.1605 3.42508 16.7405 5.11569C18.3506 6.82632 19.2306 9.09715 19.2306 11.518C19.2505 13.4687 18.6505 15.3894 17.5405 16.94Z" fill="#1B2006" fill-opacity="0.8"/>
</svg>
