<svg width="41" height="28" viewBox="0 0 41 28" fill="none" xmlns="http://www.w3.org/2000/svg">
<path d="M34.5374 23.1256H2.10744C1.89744 23.1256 1.69744 23.0456 1.54744 22.8956L1.11744 22.4656C0.957441 22.3056 0.877441 22.1056 0.877441 21.8956V1.51564C0.877441 1.30564 0.957441 1.10564 1.10744 0.955645L1.53744 0.525645C1.69744 0.365645 1.89744 0.285645 2.10744 0.285645H34.5374C34.7474 0.285645 34.9474 0.365645 35.0974 0.515645L35.5274 0.945645C35.6774 1.09564 35.7574 1.29564 35.7574 1.50564V21.8756C35.7574 22.0856 35.6774 22.2856 35.5274 22.4356L35.0974 22.8656C34.9574 23.0356 34.7574 23.1256 34.5374 23.1256ZM3.17744 21.3256H33.4774C33.7574 21.3256 33.9774 21.1056 33.9774 20.8256V2.58564C33.9774 2.30564 33.7574 2.08564 33.4774 2.08564H3.17744C2.89744 2.08564 2.67744 2.30564 2.67744 2.58564V20.8256C2.67744 21.0956 2.89744 21.3256 3.17744 21.3256Z" fill="#494949"/>
<path d="M39.7474 27.2156H7.08738C6.93738 27.2156 6.81738 27.0956 6.81738 26.9456V25.6856C6.81738 25.5356 6.93738 25.4156 7.08738 25.4156H38.6274C38.8374 25.4156 39.0174 25.2456 39.0174 25.0256V4.55564C39.0074 4.40564 39.1374 4.28564 39.2774 4.28564H40.5374C40.6874 4.28564 40.8074 4.40564 40.8074 4.55564V26.1456C40.8074 26.2456 40.7674 26.3456 40.6974 26.4156L40.0274 27.0856C39.9574 27.1756 39.8574 27.2156 39.7474 27.2156Z" fill="#494949"/>
<path d="M18.3273 17.5457C15.1073 17.5457 12.4873 14.9257 12.4873 11.7057C12.4873 8.48572 15.1073 5.86572 18.3273 5.86572C21.5473 5.86572 24.1673 8.48572 24.1673 11.7057C24.1673 14.9257 21.5473 17.5457 18.3273 17.5457ZM18.3273 7.66572C16.0973 7.66572 14.2873 9.47572 14.2873 11.7057C14.2873 13.9357 16.0973 15.7457 18.3273 15.7457C20.5573 15.7457 22.3673 13.9357 22.3673 11.7057C22.3673 9.47572 20.5473 7.66572 18.3273 7.66572Z" fill="#494949"/>
</svg>
